<svg width="280" height="222" viewBox="0 0 280 222" fill="none" xmlns="http://www.w3.org/2000/svg">
<path d="M113.425 221.14C121.986 221.14 128.925 214.2 128.925 205.64C128.925 197.079 121.986 190.14 113.425 190.14C104.865 190.14 97.9253 197.079 97.9253 205.64C97.9253 214.2 104.865 221.14 113.425 221.14Z" fill="#BE3737"/>
<path d="M218.035 221.14C226.872 221.14 234.035 213.976 234.035 205.14C234.035 196.303 226.872 189.14 218.035 189.14C209.199 189.14 202.035 196.303 202.035 205.14C202.035 213.976 209.199 221.14 218.035 221.14Z" fill="#BE3737"/>
<path d="M237.655 91.8999V92.1499H237.595C237.615 92.0699 237.635 91.9899 237.655 91.8999Z" fill="#BE3737"/>
<path d="M237.815 90.1998C237.815 90.7898 237.755 91.3498 237.655 91.8798C237.655 90.8298 237.615 89.7598 237.525 88.7098C237.495 88.3798 237.465 88.0698 237.435 87.7498C237.685 88.5398 237.815 89.3598 237.815 90.1998Z" fill="#BE3737"/>
<path d="M279.155 86.8899V87.4199C279.135 89.1299 279.085 90.6799 279.005 92.1499C278.995 92.3999 278.975 92.6499 278.965 92.8999C278.575 99.4499 277.615 106.04 276.085 112.42C276.055 112.56 276.015 112.7 275.985 112.84C275.975 112.88 275.965 112.92 275.955 112.96C270.075 137.26 256.045 159.28 236.425 174.99C234.315 176.68 232.155 178.29 229.935 179.81C226.325 178.09 222.285 177.14 218.035 177.14C205.455 177.14 194.785 185.48 191.265 196.92C182.795 198.91 174.075 199.94 165.295 199.94C156.515 199.94 147.895 198.94 139.525 197C135.905 186.06 125.565 178.14 113.425 178.14C109.315 178.14 105.405 179.05 101.905 180.67C96.8952 177.32 92.1252 173.53 87.6452 169.35C66.6352 149.76 53.8952 123.25 51.7552 94.6999C51.7252 94.3699 51.7052 94.0299 51.6852 93.6899C51.6652 93.4099 51.6452 93.1299 51.6252 92.8499C51.6152 92.6599 51.6052 92.4799 51.5952 92.2899V37.8699C51.5952 32.6899 49.6352 30.0099 47.6452 28.3699C45.1752 26.3399 42.3252 25.7499 41.4752 25.7499H12.8952C11.2952 25.7499 9.77519 25.4399 8.38519 24.8699C3.96519 23.0899 0.845215 18.7599 0.845215 13.6999C0.845215 8.63986 3.96519 4.30986 8.38519 2.52986C9.77519 1.95986 11.2952 1.64986 12.8952 1.64986H41.4752C47.8852 1.64986 56.1352 4.16986 62.9252 9.73986C66.4752 12.6499 69.6052 16.3799 71.8752 20.9299C74.2152 25.6099 75.6452 31.1599 75.6852 37.5599C75.6952 37.6599 75.6952 37.7699 75.6952 37.8699V92.9199C79.1852 139.48 118.525 175.94 165.295 175.94C167.615 175.94 169.905 175.85 172.185 175.67C211.055 172.76 243.635 145.29 252.735 106.88C252.755 106.81 252.765 106.74 252.785 106.67C252.805 106.6 252.825 106.52 252.845 106.45C254.135 101.79 254.895 96.9799 255.105 92.1499C255.115 91.9999 255.115 91.8599 255.125 91.7099C255.145 91.1699 255.165 90.6499 255.165 90.1399V86.9699L255.025 84.7399C252.725 50.9399 225.015 24.8599 190.785 24.8599C169.055 24.8599 149.815 35.6699 138.145 52.1999C135.105 56.5099 132.575 61.2199 130.655 66.2199C127.905 73.3799 126.395 81.1399 126.395 89.2499C126.395 89.7999 126.405 90.3399 126.415 90.8799H126.445L126.605 92.1499L126.865 94.2599C126.985 95.2299 126.985 96.1899 126.885 97.1299C126.405 101.32 123.755 104.94 119.965 106.69C123.515 118.26 132.455 127.89 144.435 134.02C145.735 134.69 147.085 135.32 148.455 135.9C150.325 129.13 156.525 124.15 163.885 124.15H182.035C190.115 124.15 196.795 130.15 197.885 137.93C197.985 138.65 198.035 139.4 198.035 140.15C198.035 141.59 197.845 142.98 197.495 144.3C196.755 147.05 195.305 149.51 193.345 151.46C192.535 152.28 191.625 153.01 190.655 153.63C188.165 155.23 185.205 156.15 182.035 156.15H163.885C155.735 156.15 149.005 150.06 148.015 142.18C131.235 135.61 118.495 123.18 114.025 107.76C108.425 107.34 103.705 103.04 102.985 97.2499L102.555 93.8599C102.465 93.1699 102.445 92.4099 102.445 92.1499V92.0499C102.415 91.0999 102.395 90.1799 102.395 89.2499C102.395 40.5099 142.045 0.859863 190.785 0.859863C191.885 0.859863 192.985 0.879863 194.075 0.929863C216.055 1.71986 236.695 10.5499 252.505 25.9799C268.435 41.5199 277.795 62.1099 279.045 84.2199L279.105 84.3499L279.145 86.8399C279.145 86.8399 279.145 86.8699 279.155 86.8899Z" fill="#BE3737"/>
<path d="M218.035 221.14C226.872 221.14 234.035 213.976 234.035 205.14C234.035 196.303 226.872 189.14 218.035 189.14C209.199 189.14 202.035 196.303 202.035 205.14C202.035 213.976 209.199 221.14 218.035 221.14Z" fill="#BE3737"/>
<path d="M113.425 221.14C121.986 221.14 128.925 214.2 128.925 205.64C128.925 197.079 121.986 190.14 113.425 190.14C104.865 190.14 97.9253 197.079 97.9253 205.64C97.9253 214.2 104.865 221.14 113.425 221.14Z" fill="#BE3737"/>
<path d="M237.435 87.7498C237.465 88.0698 237.495 88.3798 237.525 88.6998C237.615 89.7598 237.655 90.8298 237.655 91.8798C237.755 91.3498 237.815 90.7898 237.815 90.1998C237.815 89.3598 237.685 88.5398 237.435 87.7498Z" fill="#BE3737"/>
<path d="M237.655 91.8799V91.8999C237.635 91.9899 237.615 92.0699 237.595 92.1499C236.695 96.0299 233.145 98.4699 229.495 98.4699C227.355 98.4699 225.175 97.6399 223.465 95.7799L220.195 92.2199L220.125 92.1499C218.965 90.9499 217.035 90.9499 215.865 92.1499L215.795 92.2199L212.525 95.7799C207.895 100.82 199.825 98.3099 198.395 92.1499C198.255 91.5399 198.175 90.8799 198.175 90.1999C198.175 88.1299 198.955 86.1399 200.355 84.6099L210.635 73.4099C214.595 69.0899 221.405 69.0899 225.365 73.4099L235.645 84.6099C236.475 85.5199 237.085 86.5899 237.435 87.7499C237.465 88.0699 237.495 88.3799 237.525 88.6999C237.615 89.7599 237.655 90.8299 237.655 91.8799Z" fill="#BE3737"/>
<path d="M237.815 90.1998C237.815 90.7898 237.755 91.3498 237.655 91.8798C237.655 90.8298 237.615 89.7598 237.525 88.7098C237.495 88.3798 237.465 88.0698 237.435 87.7498C237.685 88.5398 237.815 89.3598 237.815 90.1998Z" fill="#BE3737"/>
<path d="M185.115 90.1999C185.115 90.8799 185.035 91.5399 184.895 92.1499C183.995 96.0299 180.445 98.4699 176.785 98.4699C174.645 98.4699 172.475 97.6399 170.765 95.7799L167.495 92.2199L167.425 92.1499C166.265 90.9499 164.325 90.9499 163.165 92.1499C163.145 92.1699 163.115 92.1999 163.095 92.2199L159.825 95.7799C155.195 100.82 147.125 98.3099 145.695 92.1499C145.555 91.5399 145.475 90.8799 145.475 90.1999C145.475 88.1299 146.255 86.1399 147.645 84.6099L157.925 73.4099C161.895 69.0899 168.705 69.0899 172.665 73.4099L182.945 84.6099C184.345 86.1399 185.115 88.1299 185.115 90.1999Z" fill="#BE3737"/>
</svg>
